<svg width="48" height="48" viewBox="0 0 48 48" fill="none" xmlns="http://www.w3.org/2000/svg">
<g clip-path="url(#clip0_56_7774)">
<path d="M34 0H7.55554V43.2941H34V0Z" fill="#EFEBEA"/>
<path d="M27.3889 30.5976V47.0588H0.944458V3.76465H27.3889V16.9411" stroke="black" stroke-width="2" stroke-miterlimit="10"/>
<path d="M0.944458 39.1719H27.3889" stroke="black" stroke-width="2" stroke-miterlimit="10"/>
<path d="M11.7772 43.2939H16.5561" stroke="black" stroke-width="2" stroke-miterlimit="10"/>
<g style="mix-blend-mode:multiply">
<path d="M23.4034 23.7552C23.3977 24.5513 23.6295 25.331 24.0692 25.9956C24.5089 26.6602 25.1367 27.1797 25.8731 27.4882C26.6095 27.7967 27.4212 27.8803 28.2054 27.7285C28.9895 27.5766 29.7107 27.1961 30.2776 26.6352C30.8444 26.0743 31.2313 25.3583 31.3892 24.5779C31.5471 23.7976 31.469 22.9881 31.1646 22.2521C30.8602 21.5161 30.3433 20.8868 29.6795 20.444C29.0158 20.0011 28.2349 19.7647 27.4361 19.7646C26.3715 19.7646 25.35 20.1842 24.5945 20.9317C23.839 21.6793 23.4108 22.6943 23.4034 23.7552V23.7552Z" fill="#E52500"/>
</g>
<path d="M15.9611 17.3833V25.7974C13.6661 25.4021 11.5789 24.2633 9.65223 21.0351L5.87445 22.9174C9.86001 29.5998 15.1583 29.9574 19.2478 29.9574H20.3339V15.8115L15.9611 17.3833Z" fill="black"/>
</g>
<defs>
<clipPath id="clip0_56_7774">
<rect width="34" height="48" fill="white"/>
</clipPath>
</defs>
</svg>
