<svg width="48" height="49" viewBox="0 0 48 49" fill="none" xmlns="http://www.w3.org/2000/svg">
<g clip-path="url(#clip0_428_57281)">
<path fill-rule="evenodd" clip-rule="evenodd" d="M33 16C33 13.0826 31.8411 10.2847 29.7782 8.22183C27.7153 6.15893 24.9174 5 22 5C19.0826 5 16.2847 6.15893 14.2218 8.22183C12.1589 10.2847 11 13.0826 11 16V23C11 25.9174 12.1589 28.7153 14.2218 30.7782C16.2847 32.8411 19.0826 34 22 34C24.9174 34 27.7153 32.8411 29.7782 30.7782C31.8411 28.7153 33 25.9174 33 23V16Z" fill="#EFEBEA"/>
<path fill-rule="evenodd" clip-rule="evenodd" d="M8 14.2695C6.67392 14.2695 5.40215 14.7963 4.46447 15.734C3.52678 16.6717 3 17.9434 3 19.2695V19.9995C3 21.3256 3.52678 22.5974 4.46447 23.5351C5.40215 24.4727 6.67392 24.9995 8 24.9995V14.2695Z" stroke="black" stroke-width="2" stroke-linejoin="round"/>
<path fill-rule="evenodd" clip-rule="evenodd" d="M36 14.2695C36.6566 14.2695 37.3068 14.3989 37.9134 14.6501C38.52 14.9014 39.0712 15.2697 39.5355 15.734C39.9998 16.1983 40.3681 16.7495 40.6194 17.3561C40.8707 17.9627 41 18.6129 41 19.2695V19.9995C41 20.6561 40.8707 21.3063 40.6194 21.9129C40.3681 22.5196 39.9998 23.0708 39.5355 23.5351C39.0712 23.9994 38.52 24.3677 37.9134 24.6189C37.3068 24.8702 36.6566 24.9995 36 24.9995V14.2695Z" stroke="black" stroke-width="2" stroke-linejoin="round"/>
<path fill-rule="evenodd" clip-rule="evenodd" d="M41.25 40.2188L28.67 34.7188C26.6404 35.8847 24.3407 36.4983 22 36.4983C19.6593 36.4983 17.3596 35.8847 15.33 34.7188L2.75 40.2188C1.96061 40.615 1.29028 41.2134 0.807239 41.9529C0.324194 42.6924 0.0456669 43.5466 0 44.4287L0 47.4287C0 47.694 0.105357 47.9483 0.292893 48.1359C0.48043 48.3234 0.734784 48.4287 1 48.4287H43C43.2652 48.4287 43.5196 48.3234 43.7071 48.1359C43.8946 47.9483 44 47.694 44 47.4287V44.4287C43.9543 43.5466 43.6758 42.6924 43.1928 41.9529C42.7097 41.2134 42.0394 40.615 41.25 40.2188V40.2188Z" fill="#EFEBEA"/>
<g style="mix-blend-mode:multiply">
<path d="M22 39C25.3137 39 28 36.3137 28 33C28 29.6863 25.3137 27 22 27C18.6863 27 16 29.6863 16 33C16 36.3137 18.6863 39 22 39Z" fill="#E52500"/>
</g>
<path d="M36 15C36 11.287 34.525 7.72601 31.8995 5.1005C29.274 2.475 25.713 1 22 1C18.287 1 14.726 2.475 12.1005 5.1005C9.475 7.72601 8 11.287 8 15" stroke="black" stroke-width="2" stroke-linejoin="round"/>
<path d="M36 25C36 33 28 33 28 33" stroke="black" stroke-width="2" stroke-linejoin="round"/>
</g>
<defs>
<clipPath id="clip0_428_57281">
<rect width="44" height="48.42" fill="white"/>
</clipPath>
</defs>
</svg>
