<svg width="48" height="48" viewBox="0 0 48 48" fill="none" xmlns="http://www.w3.org/2000/svg">
<g clip-path="url(#clip0_428_57326)">
<path d="M44 5.51953H2C1.46957 5.51953 0.960859 5.73024 0.585786 6.10532C0.210714 6.48039 0 6.9891 0 7.51953L0 41.5195H46V7.51953C46 6.9891 45.7893 6.48039 45.4142 6.10532C45.0391 5.73024 44.5304 5.51953 44 5.51953ZM28 13.5195H18.11C17.617 13.5383 17.1335 13.3803 16.7466 13.0742C16.3598 12.768 16.095 12.3337 16 11.8495C15.9516 11.5607 15.9673 11.2647 16.0459 10.9825C16.1246 10.7004 16.2642 10.4389 16.455 10.2167C16.6457 9.99444 16.883 9.8168 17.15 9.69634C17.417 9.57587 17.7071 9.51551 18 9.51953H27.89C28.3816 9.50035 28.864 9.65689 29.2506 9.96108C29.6373 10.2653 29.9029 10.6972 30 11.1795C30.05 11.4691 30.0355 11.7662 29.9577 12.0496C29.8798 12.333 29.7404 12.5958 29.5495 12.8192C29.3585 13.0426 29.1207 13.2212 28.8529 13.3422C28.5851 13.4633 28.2939 13.5238 28 13.5195V13.5195Z" fill="#EFEBEA"/>
<path d="M13 25.16C14.9772 25.16 16.58 23.5572 16.58 21.58C16.58 19.6028 14.9772 18 13 18C11.0229 18 9.42004 19.6028 9.42004 21.58C9.42004 23.5572 11.0229 25.16 13 25.16Z" stroke="black" stroke-width="2" stroke-miterlimit="10"/>
<path d="M19 34.5C19 32.9087 18.3679 31.3826 17.2426 30.2574C16.1174 29.1321 14.5913 28.5 13 28.5C11.4087 28.5 9.88258 29.1321 8.75736 30.2574C7.63214 31.3826 7 32.9087 7 34.5" stroke="black" stroke-width="2" stroke-miterlimit="10"/>
<g style="mix-blend-mode:multiply">
<path d="M23.12 12C26.4337 12 29.12 9.31371 29.12 6C29.12 2.68629 26.4337 0 23.12 0C19.8063 0 17.12 2.68629 17.12 6C17.12 9.31371 19.8063 12 23.12 12Z" fill="#E52500"/>
</g>
<path d="M25.12 23.5195H40" stroke="black" stroke-width="2" stroke-miterlimit="10"/>
<path d="M25.12 29.5195H34.69" stroke="black" stroke-width="2" stroke-miterlimit="10"/>
<path d="M0 41.5195H46" stroke="black" stroke-width="2" stroke-miterlimit="10"/>
</g>
<defs>
<clipPath id="clip0_428_57326">
<rect width="46" height="42.52" fill="white"/>
</clipPath>
</defs>
</svg>
