<svg width="48" height="48" viewBox="0 0 48 48" fill="none" xmlns="http://www.w3.org/2000/svg">
<path d="M37.5 40.5H35.5C34.95 40.5 34.5 40.95 34.5 41.5V47.5H38.5V41.5C38.5 40.95 38.05 40.5 37.5 40.5Z" stroke="black" stroke-miterlimit="10"/>
<path d="M13.5 41.5H11.5C10.95 41.5 10.5 41.95 10.5 42.5V47.5H14.5V42.5C14.5 41.95 14.05 41.5 13.5 41.5Z" stroke="black" stroke-miterlimit="10"/>
<path d="M23.5 5.5V2.5C23.5 1.95 23.95 1.5 24.5 1.5C25.05 1.5 25.5 1.95 25.5 2.5V5.5" stroke="black" stroke-miterlimit="10"/>
<path d="M33.5 21.5V12.5C33.5 11.95 33.05 11.5 32.5 11.5H29.5V6.5C29.5 5.95 29.05 5.5 28.5 5.5H20.5C19.95 5.5 19.5 5.95 19.5 6.5V11.5H16.5C15.95 11.5 15.5 11.95 15.5 12.5V27.5" stroke="black" stroke-miterlimit="10"/>
<path d="M19.1899 47.5H29.8299" stroke="black" stroke-miterlimit="10"/>
<path d="M20.5 27.5H4.5C3.95 27.5 3.5 27.95 3.5 28.5V46.5C3.5 47.05 3.95 47.5 4.5 47.5H20.5C21.05 47.5 21.5 47.05 21.5 46.5V28.5C21.5 27.95 21.05 27.5 20.5 27.5Z" stroke="black" stroke-miterlimit="10"/>
<path d="M44.5 21.5H28.5C27.95 21.5 27.5 21.95 27.5 22.5V46.5C27.5 47.05 27.95 47.5 28.5 47.5H44.5C45.05 47.5 45.5 47.05 45.5 46.5V22.5C45.5 21.95 45.05 21.5 44.5 21.5Z" stroke="black" stroke-miterlimit="10"/>
<path d="M34.5 29.5H32.5C31.95 29.5 31.5 29.05 31.5 28.5V26.5C31.5 25.95 31.95 25.5 32.5 25.5H34.5C35.05 25.5 35.5 25.95 35.5 26.5V28.5C35.5 29.05 35.05 29.5 34.5 29.5Z" stroke="black" stroke-miterlimit="10"/>
<path d="M40.5 29.5H38.5C37.95 29.5 37.5 29.05 37.5 28.5V26.5C37.5 25.95 37.95 25.5 38.5 25.5H40.5C41.05 25.5 41.5 25.95 41.5 26.5V28.5C41.5 29.05 41.05 29.5 40.5 29.5Z" stroke="black" stroke-miterlimit="10"/>
<path d="M34.5 35.5H32.5C31.95 35.5 31.5 35.05 31.5 34.5V32.5C31.5 31.95 31.95 31.5 32.5 31.5H34.5C35.05 31.5 35.5 31.95 35.5 32.5V34.5C35.5 35.05 35.05 35.5 34.5 35.5Z" stroke="black" stroke-miterlimit="10"/>
<path d="M40.5 35.5H38.5C37.95 35.5 37.5 35.05 37.5 34.5V32.5C37.5 31.95 37.95 31.5 38.5 31.5H40.5C41.05 31.5 41.5 31.95 41.5 32.5V34.5C41.5 35.05 41.05 35.5 40.5 35.5Z" stroke="black" stroke-miterlimit="10"/>
<path d="M10.5 36.5H8.5C7.95 36.5 7.5 36.05 7.5 35.5V33.5C7.5 32.95 7.95 32.5 8.5 32.5H10.5C11.05 32.5 11.5 32.95 11.5 33.5V35.5C11.5 36.05 11.05 36.5 10.5 36.5Z" stroke="black" stroke-miterlimit="10"/>
<path d="M16.5 36.5H14.5C13.95 36.5 13.5 36.05 13.5 35.5V33.5C13.5 32.95 13.95 32.5 14.5 32.5H16.5C17.05 32.5 17.5 32.95 17.5 33.5V35.5C17.5 36.05 17.05 36.5 16.5 36.5Z" stroke="black" stroke-miterlimit="10"/>
</svg>
