<svg width="48" height="48" viewBox="0 0 48 48" fill="none" xmlns="http://www.w3.org/2000/svg">
<path d="M25.5 2.5H21.5C20.95 2.5 20.5 2.95 20.5 3.5V6.5H26.5V3.5C26.5 2.95 26.05 2.5 25.5 2.5Z" stroke="black" stroke-miterlimit="10"/>
<path d="M41.5 6.5H5.5C4.95 6.5 4.5 6.95 4.5 7.5V35.5H42.5V7.5C42.5 6.95 42.05 6.5 41.5 6.5Z" stroke="black" stroke-miterlimit="10"/>
<path d="M23.5 44.5C22.95 44.5 22.5 44.05 22.5 43.5V35.5C22.5 34.95 22.95 34.5 23.5 34.5C24.05 34.5 24.5 34.95 24.5 35.5V43.5C24.5 44.05 24.05 44.5 23.5 44.5Z" stroke="black" stroke-miterlimit="10"/>
<path d="M11.5001 46.5C11.2801 46.5 11.0601 46.43 10.8801 46.28C10.4501 45.94 10.3801 45.31 10.7201 44.87L18.7201 34.87C19.0701 34.44 19.6901 34.37 20.1301 34.71C20.5601 35.05 20.6301 35.68 20.2901 36.12L12.2901 46.12C12.0901 46.37 11.8001 46.5 11.5101 46.5H11.5001Z" stroke="black" stroke-miterlimit="10"/>
<path d="M35.5001 46.5001C35.2101 46.5001 34.9201 46.3701 34.7201 46.1201L26.7201 36.1201C26.3801 35.6901 26.4501 35.0601 26.8801 34.7101C27.3101 34.3601 27.9401 34.4401 28.2901 34.8701L36.2901 44.8701C36.6301 45.3001 36.5601 45.9301 36.1301 46.2801C35.9501 46.4301 35.7201 46.5001 35.5101 46.5001H35.5001Z" stroke="black" stroke-miterlimit="10"/>
<path d="M24.5 12.5H22.5C21.95 12.5 21.5 12.95 21.5 13.5V27.5C21.5 28.05 21.95 28.5 22.5 28.5H24.5C25.05 28.5 25.5 28.05 25.5 27.5V13.5C25.5 12.95 25.05 12.5 24.5 12.5Z" stroke="black" stroke-miterlimit="10"/>
<path d="M16.5 18.5H14.5C13.95 18.5 13.5 18.95 13.5 19.5V27.5C13.5 28.05 13.95 28.5 14.5 28.5H16.5C17.05 28.5 17.5 28.05 17.5 27.5V19.5C17.5 18.95 17.05 18.5 16.5 18.5Z" stroke="black" stroke-miterlimit="10"/>
<path d="M32.5 21.5H30.5C29.95 21.5 29.5 21.95 29.5 22.5V27.5C29.5 28.05 29.95 28.5 30.5 28.5H32.5C33.05 28.5 33.5 28.05 33.5 27.5V22.5C33.5 21.95 33.05 21.5 32.5 21.5Z" stroke="black" stroke-miterlimit="10"/>
<path d="M45.5 36.2H1.5C0.95 36.2 0.5 35.75 0.5 35.2C0.5 34.65 0.95 34.2 1.5 34.2H45.5C46.05 34.2 46.5 34.65 46.5 35.2C46.5 35.75 46.05 36.2 45.5 36.2Z" fill="white" stroke="black" stroke-miterlimit="10"/>
</svg>
