<svg width="48" height="48" viewBox="0 0 48 48" fill="none" xmlns="http://www.w3.org/2000/svg">
<path d="M14.5 22.5V17.5C14.5 16.44 14.92 15.42 15.67 14.67C16.42 13.92 17.44 13.5 18.5 13.5H28.5C29.56 13.5 30.58 13.92 31.33 14.67C32.08 15.42 32.5 16.44 32.5 17.5V22.5" stroke="black" stroke-miterlimit="10"/>
<path d="M6.23 47.5H40.77C41.23 47.5 41.67 47.37 41.99 47.13C42.31 46.9 42.5 46.58 42.5 46.25V27.5H4.5V46.25C4.5 46.58 4.68 46.9 5.01 47.13C5.33 47.36 5.77 47.5 6.23 47.5V47.5Z" stroke="black" stroke-miterlimit="10"/>
<path d="M28.8101 39.3001L26.4601 38.2601C26.2301 38.1601 25.9701 38.1301 25.7201 38.1901C25.4701 38.2501 25.2501 38.3901 25.0901 38.5901L24.3801 39.4801C23.2301 38.7501 22.2501 37.7701 21.5201 36.6201L22.4101 35.9101C22.6101 35.7501 22.7501 35.5301 22.8101 35.2801C22.8701 35.0301 22.8501 34.7701 22.7401 34.5401L21.7001 32.1901C21.5901 31.9401 21.3901 31.7401 21.1501 31.6201C20.9001 31.5001 20.6201 31.4701 20.3601 31.5401L18.3701 32.0601C18.1001 32.1301 17.8601 32.3001 17.7001 32.5401C17.5401 32.7801 17.4801 33.0601 17.5201 33.3401C17.8901 35.9001 19.0801 38.2801 20.9101 40.1101C22.7401 41.9401 25.1201 43.1301 27.6801 43.5001C27.7301 43.5001 27.7901 43.5101 27.8401 43.5101C28.1001 43.5101 28.3401 43.4201 28.5501 43.2701C28.7501 43.1101 28.9001 42.8901 28.9601 42.6501L29.4801 40.6601C29.5501 40.4001 29.5201 40.1101 29.4001 39.8701C29.2801 39.6201 29.0801 39.4301 28.8301 39.3201L28.8101 39.3001Z" stroke="black" stroke-miterlimit="10"/>
<path d="M44.5 22.5H2.5C1.94772 22.5 1.5 22.9477 1.5 23.5V26.5C1.5 27.0523 1.94772 27.5 2.5 27.5H44.5C45.0523 27.5 45.5 27.0523 45.5 26.5V23.5C45.5 22.9477 45.0523 22.5 44.5 22.5Z" stroke="black" stroke-miterlimit="10"/>
<path d="M23.5 11.5C26.2614 11.5 28.5 9.26142 28.5 6.5C28.5 3.73858 26.2614 1.5 23.5 1.5C20.7386 1.5 18.5 3.73858 18.5 6.5C18.5 9.26142 20.7386 11.5 23.5 11.5Z" stroke="black" stroke-miterlimit="10"/>
</svg>
