<svg width="47" height="48" viewBox="0 0 47 48" fill="none" xmlns="http://www.w3.org/2000/svg">
<path d="M42.1825 17.0039H4.80681C3.82161 17.0039 3.02295 17.803 3.02295 18.7888V46.2143C3.02295 47.2001 3.82161 47.9992 4.80681 47.9992H42.1825C43.1677 47.9992 43.9664 47.2001 43.9664 46.2143V18.7888C43.9664 17.803 43.1677 17.0039 42.1825 17.0039Z" fill="#EFEBEA"/>
<g style="mix-blend-mode:multiply">
<path d="M16.0227 26.3431C19.7806 26.3431 22.827 23.295 22.827 19.5348C22.827 15.7747 19.7806 12.7266 16.0227 12.7266C12.2648 12.7266 9.21838 15.7747 9.21838 19.5348C9.21838 23.295 12.2648 26.3431 16.0227 26.3431Z" fill="#E52500"/>
</g>
<path d="M26.4588 39.45C26.4588 36.6806 25.3593 34.0246 23.4021 32.0663C21.445 30.108 18.7905 29.0078 16.0227 29.0078C13.2548 29.0078 10.6004 30.108 8.64322 32.0663C6.68607 34.0246 5.58655 36.6806 5.58655 39.45" stroke="black" stroke-width="2" stroke-miterlimit="10"/>
<path d="M39.6295 15.5393L36.425 13.1773C36.1152 12.9498 35.741 12.8271 35.3568 12.8271C34.9726 12.8271 34.5984 12.9498 34.2886 13.1773L32.9214 14.2461C31.4507 12.7636 30.3239 10.9756 29.6207 9.00894L31.1909 8.25009C31.5507 8.09165 31.8502 7.82193 32.0454 7.48055C32.2129 7.15098 32.2691 6.77598 32.2057 6.41174L31.4366 2.53198C31.3643 2.11036 31.1414 1.72938 30.8093 1.46C30.4772 1.19062 30.0586 1.0512 29.6314 1.06772L26.4802 1.16392C26.046 1.18396 25.6332 1.35829 25.3159 1.65557C25.0022 1.95401 24.8084 2.35698 24.7711 2.7885C24.4589 6.73824 25.4325 10.683 27.5466 14.0332C29.6606 17.3834 32.8015 19.959 36.4998 21.375L36.7348 21.4498C37.1134 21.5537 37.5159 21.5274 37.8777 21.375C38.2333 21.212 38.5233 20.9332 38.7002 20.5841L40.1423 17.7838C40.344 17.4152 40.4011 16.9846 40.3025 16.5761C40.2124 16.1598 39.973 15.791 39.6295 15.5393Z" stroke="black" stroke-width="2" stroke-linecap="round" stroke-linejoin="round"/>
<path d="M0 42.6562H47" stroke="black" stroke-width="2" stroke-miterlimit="10"/>
</svg>
